<svg width="1" height="1" viewBox="0 0 1 1" fill="none" xmlns="http://www.w3.org/2000/svg">
<g clip-path="url(#clip0)">
<path d="M0.956394 0.850231C0.921848 0.800231 0.886394 0.77523 0.851848 0.77523C0.839121 0.77523 0.826394 0.750231 0.813667 0.800231C0.798212 0.850231 0.782758 0.75023 0.768212 0.75023C0.705485 0.72523 0.642758 0.72523 0.580939 0.75023C0.541849 0.75023 0.503667 0.80023 0.464576 0.77523C0.454576 0.77523 0.446394 0.85023 0.436394 0.87523C0.417303 0.92523 0.399121 0.80023 0.38003 0.82523C0.369121 0.82523 0.359121 0.92523 0.349121 0.90023C0.310939 0.85023 0.273667 0.900231 0.236394 0.925231C0.181849 0.925231 0.128212 0.95023 0.0736667 1.00023C0.0609394 1.00023 0.0482122 1.00023 0.036394 0.925231C0.0218485 0.850231 0.0100303 0.62523 0.000939429 0.35023C-0.00178784 0.25023 0.00184852 0.20023 0.00639397 0.17523C0.0136667 0.12523 0.0200303 0.20023 0.026394 0.20023C0.0727576 0.17523 0.119121 0.12523 0.165485 0.12523C0.213667 0.10023 0.261848 0.12523 0.31003 0.10023C0.337303 0.10023 0.364576 0.0752305 0.391849 0.0752305C0.467303 0.0752305 0.541848 -0.0247695 0.617303 0.0252305C0.650939 0.0502305 0.685485 0.0502305 0.719121 0.0502305C0.741848 0.0502305 0.764576 0.000230469 0.787303 0.12523C0.792758 0.15023 0.80003 0.0252305 0.806394 0.0252305C0.863667 0.0252305 0.921848 -0.0497696 0.979121 0.22523C0.981848 0.25023 0.986394 0.25023 0.99003 0.25023C0.993667 0.25023 0.995485 0.30023 0.996394 0.37523C0.997303 0.45023 0.998212 0.50023 0.994576 0.57523C0.985485 0.85023 0.971848 0.875231 0.956394 0.850231Z" fill="#73336E"/>
</g>
<defs>
<clipPath id="clip0">
<rect width="1" height="1" fill="white"/>
</clipPath>
</defs>
</svg>
