<svg width="118" height="118" viewBox="0 0 118 118" fill="none" xmlns="http://www.w3.org/2000/svg">
<path d="M100.583 95.9723C100.583 102.145 95.5334 107.195 89.3612 107.195H27.639C21.4667 107.195 16.4167 102.145 16.4167 95.9723V48.2779C16.4167 42.1057 21.4667 37.0557 27.639 37.0557H89.3612C95.5334 37.0557 100.583 42.1057 100.583 48.2779V95.9723Z" fill="#B695B4"/>
<path d="M109 39.8609C109 46.0331 103.95 51.0831 97.7778 51.0831H19.2222C13.05 51.0831 8 46.0331 8 39.8609C8 33.6887 13.05 28.6387 19.2222 28.6387H97.7778C103.95 28.6387 109 33.6887 109 39.8609Z" fill="#B695B4"/>
<path d="M16.4167 51.083H100.583V56.6941H16.4167V51.083Z" fill="#A27B9F"/>
<path d="M52.8891 28.6377C55.9752 28.6377 56.4325 27.1901 53.9019 25.4197L35.043 12.2168C34.4643 11.7955 33.8025 11.5023 33.1017 11.3569C32.4008 11.2115 31.677 11.2172 30.9785 11.3736C30.28 11.53 29.6229 11.8334 29.051 12.2638C28.479 12.6941 28.0053 13.2414 27.6616 13.8693L22.0056 23.7673C20.4737 26.4466 21.7475 28.6377 24.8336 28.6377H52.8891ZM64.1113 28.6377C61.0252 28.6377 60.5679 27.1901 63.0985 25.4197L81.9603 12.2168C82.5391 11.7959 83.2009 11.5032 83.9017 11.358C84.6024 11.2129 85.3261 11.2187 86.0244 11.375C86.7228 11.5313 87.3798 11.8346 87.9518 12.2647C88.5238 12.6948 88.9976 13.2418 89.3417 13.8693L94.9977 23.7645C96.5267 26.4466 95.253 28.6377 92.1669 28.6377H64.1113Z" fill="#4C2A45"/>
<path d="M61.3056 17.417H55.6945C53.4623 17.417 51.3214 18.3037 49.743 19.8822C48.1646 21.4606 47.2778 23.6014 47.2778 25.8337V107.195H69.7223V25.8337C69.7223 23.6014 68.8355 21.4606 67.2571 19.8822C65.6787 18.3037 63.5378 17.417 61.3056 17.417Z" fill="#73336E"/>
</svg>
