<svg width="2037" height="1150" viewBox="0 0 2037 1150" fill="none" xmlns="http://www.w3.org/2000/svg">
<g clip-path="url(#clip0)">
<rect width="2036.26" height="1149.76" fill="#FFF5F4"/>
<path opacity="0.25" fill-rule="evenodd" clip-rule="evenodd" d="M87.5201 150.64C96.7201 159.31 108.84 163.26 120.84 166.34C144.21 172.38 157.44 176.8 175.14 195.14C185.54 205.94 196.41 217.44 211.61 220.84C222.68 223.34 238.33 221.76 245.23 211.42C254.97 193.98 248.45 173.48 237.55 158.05C224.03 138.93 207.41 131.93 185 134.95C172.36 136.65 162.38 135.05 151.28 128.62C142.4 123.48 134.25 115.32 124.65 111.57C110.3 105.94 97.2001 107.31 85.3501 116.47C110.17 131.67 137.13 145.89 164.85 154.74C167.51 155.7 181.02 157.46 180.97 161.74C180.92 166.46 163.69 158.8 163.8 158.84C155.6 156.04 147.58 152.66 139.6 149.17C139.6 149.17 139.62 149.15 139.63 149.14C131.43 145.574 123.23 141.89 115.03 138.09C111.63 136.42 108.29 134.69 104.98 132.86C100.12 130.16 89.4301 120.74 83.9001 120.56C82.8888 120.502 81.8759 120.645 80.9201 120.98C75.5201 118.04 70.2001 115.02 64.9701 111.88C51.3001 103.66 38.1901 94.2202 27.6701 82.1002C24.6101 78.5702 16.5501 63.3602 12.1701 62.0502C4.17013 59.6702 11.4701 68.9502 13.5301 71.8302C30.6101 95.7102 52.1301 112.03 77.6101 125.68C76.6101 133.31 83.8101 147.11 87.5401 150.62L87.5201 150.64ZM250.63 40.1702C248.96 49.3702 236.97 57.6702 229.03 61.7102C219.21 66.7102 208.08 70.0502 197.39 72.4802C179.79 76.4802 160.39 76.4202 142.54 75.8602C140.39 75.7902 114.08 75.3202 114.62 72.2602C115.15 69.2302 142.38 72.1102 148.04 72.0602C160.12 71.9202 171.98 73.1602 183.99 70.7602C196.39 68.1166 208.26 63.4185 219.11 56.8602C220.51 56.0602 225.66 54.3802 224.56 52.2602C223.48 50.1602 216.51 55.6002 215.16 56.3602C209.589 59.4992 203.77 62.1749 197.76 64.3602C186.631 68.4773 174.798 70.3566 162.94 69.8902C162.11 62.8202 166.44 56.8302 173.38 54.7102C179.38 52.8802 186.28 52.9102 191.98 50.8102C195.849 49.3106 199.327 46.9511 202.15 43.9102C209.75 35.9902 211.88 27.5102 224.1 25.4902C233.7 23.9102 253 26.9602 250.6 40.1902" fill="#209EBB"/>
<path opacity="0.25" fill-rule="evenodd" clip-rule="evenodd" d="M278.43 102L275.95 103.42C277.896 106.492 280.017 109.45 282.3 112.28C291.02 122.78 307.14 136.31 321.9 130.31C323.477 129.509 325 128.608 326.46 127.61C327.884 127.583 329.284 127.242 330.56 126.61C342.69 120.75 350.32 103.97 350.36 91.0704C350.36 80.6704 343.71 70.8904 336.14 64.2304C331.07 59.7604 322.44 54.2304 315.58 58.0804C307 62.9004 312.61 73.5504 315.96 79.7304C320.41 87.9504 323.46 95.6004 320.19 104.83C319.42 106.99 318.43 109.07 317.64 111.23C316.41 114.57 314.96 118.13 316.54 121.58C318.74 126.35 321.8 125.68 325.24 122.56C325.84 122.03 330.88 115.11 331.24 118.06C331.36 118.96 330.57 120.18 329.41 121.43C325.99 123.93 321.89 126.91 320.48 127.36C305.26 132.23 289.31 116.74 281.11 105.79C280.19 104.54 279.29 103.29 278.41 102.01L278.43 102Z" fill="#209EBB"/>
<g opacity="0.05">
<path opacity="0.05" d="M36.3994 1149.14C36.3994 1149.14 129.869 1030.17 122.299 912.12C118.818 862.63 131.477 813.345 158.379 771.66C171.328 751.985 186.032 733.523 202.309 716.5" stroke="#535461" stroke-width="2" stroke-miterlimit="10"/>
<g opacity="0.05">
<path opacity="0.05" d="M198 642.1C191.4 658.62 202.2 718.46 202.2 718.46C202.2 718.46 251.25 682.51 257.82 665.96C259.496 662.013 260.368 657.771 260.383 653.482C260.398 649.194 259.556 644.946 257.907 640.987C256.258 637.029 253.835 633.439 250.78 630.43C247.724 627.421 244.099 625.052 240.116 623.463C236.133 621.873 231.873 621.096 227.585 621.175C223.297 621.255 219.069 622.19 215.148 623.927C211.226 625.663 207.691 628.164 204.75 631.285C201.809 634.406 199.521 638.083 198.02 642.1H198ZM112.04 713.9C115.47 731.35 156.94 775.7 156.94 775.7C156.94 775.7 178.54 718.88 175.12 701.4C173.304 693.176 168.34 685.99 161.291 681.381C154.242 676.772 145.668 675.106 137.406 676.74C129.144 678.374 121.85 683.178 117.087 690.124C112.323 697.069 110.468 705.604 111.92 713.9H112.04ZM51.7797 871.14C63.5797 884.48 121.88 901.77 121.88 901.77C121.88 901.77 111.84 841.8 100.04 828.47C97.2747 825.175 93.8781 822.468 90.0501 820.507C86.2221 818.546 82.0402 817.371 77.751 817.052C73.4618 816.733 69.1521 817.275 65.076 818.648C60.9999 820.021 57.2399 822.196 54.0177 825.045C50.7955 827.894 48.1763 831.359 46.3146 835.237C44.4528 839.114 43.3863 843.325 43.1777 847.621C42.9691 851.917 43.6228 856.211 45.1001 860.25C46.5775 864.29 48.8486 867.992 51.7797 871.14V871.14ZM33.0197 1000.38C42.3797 1015.52 96.8997 1042.42 96.8997 1042.42C96.8997 1042.42 97.1597 981.49 87.7997 966.48C85.5738 962.883 82.6612 959.76 79.2283 957.289C75.7953 954.817 71.9092 953.046 67.7919 952.077C63.6745 951.107 59.4066 950.958 55.2316 951.638C51.0567 952.318 47.0566 953.814 43.4597 956.04C39.8628 958.266 36.7395 961.179 34.2682 964.611C31.7969 968.044 30.026 971.93 29.0566 976.048C28.0871 980.165 27.9382 984.433 28.6181 988.608C29.2981 992.783 30.7938 996.783 33.0197 1000.38V1000.38ZM218.6 804C202.15 810.75 142.18 800.78 142.18 800.78C142.18 800.78 177.46 751.33 194.04 744.56C201.938 741.303 210.806 741.317 218.694 744.599C226.582 747.881 232.843 754.162 236.1 762.06C239.357 769.958 239.342 778.827 236.061 786.714C232.779 794.602 226.498 800.863 218.6 804.12V804ZM194.7 954.84C177 956.41 122.8 928.84 122.8 928.84C122.8 928.84 171.36 892.24 189.1 890.67C197.498 890.125 205.775 892.89 212.16 898.372C218.546 903.854 222.531 911.618 223.263 920.002C223.995 928.385 221.415 936.723 216.077 943.228C210.738 949.734 203.065 953.891 194.7 954.81V954.84ZM151.4 1098.32C134.16 1102.84 76.0997 1084.82 76.0997 1084.82C76.0997 1084.82 117.77 1040.52 135 1036.02C143.261 1033.85 152.047 1035.05 159.425 1039.35C166.803 1043.66 172.168 1050.72 174.34 1058.98C176.512 1067.24 175.313 1076.03 171.007 1083.41C166.701 1090.78 159.641 1096.15 151.38 1098.32H151.4Z" fill="#209EBB"/>
</g>
<path opacity="0.25" d="M198 642.1C191.4 658.62 202.2 718.46 202.2 718.46C202.2 718.46 251.25 682.51 257.82 665.96C259.496 662.013 260.368 657.771 260.383 653.482C260.398 649.194 259.556 644.946 257.907 640.987C256.258 637.029 253.835 633.439 250.78 630.43C247.724 627.421 244.099 625.052 240.116 623.463C236.133 621.873 231.873 621.096 227.585 621.175C223.297 621.255 219.069 622.19 215.148 623.927C211.226 625.663 207.691 628.164 204.75 631.285C201.809 634.406 199.521 638.083 198.02 642.1H198ZM112.04 713.9C115.47 731.35 156.94 775.7 156.94 775.7C156.94 775.7 178.54 718.88 175.12 701.4C173.304 693.176 168.34 685.99 161.291 681.381C154.242 676.772 145.668 675.106 137.406 676.74C129.144 678.374 121.85 683.178 117.087 690.124C112.323 697.069 110.468 705.604 111.92 713.9H112.04ZM51.7797 871.14C63.5797 884.48 121.88 901.77 121.88 901.77C121.88 901.77 111.84 841.8 100.04 828.47C97.2747 825.175 93.8781 822.468 90.0501 820.507C86.2221 818.546 82.0402 817.371 77.751 817.052C73.4618 816.733 69.1521 817.275 65.076 818.648C60.9999 820.021 57.2399 822.196 54.0177 825.045C50.7955 827.894 48.1763 831.359 46.3146 835.237C44.4528 839.114 43.3863 843.325 43.1777 847.621C42.9691 851.917 43.6228 856.211 45.1001 860.25C46.5775 864.29 48.8486 867.992 51.7797 871.14V871.14ZM33.0197 1000.38C42.3797 1015.52 96.8997 1042.42 96.8997 1042.42C96.8997 1042.42 97.1597 981.49 87.7997 966.48C85.5738 962.883 82.6612 959.76 79.2283 957.289C75.7953 954.817 71.9092 953.046 67.7919 952.077C63.6745 951.107 59.4066 950.958 55.2316 951.638C51.0567 952.318 47.0566 953.814 43.4597 956.04C39.8628 958.266 36.7395 961.179 34.2682 964.611C31.7969 968.044 30.026 971.93 29.0566 976.048C28.0871 980.165 27.9382 984.433 28.6181 988.608C29.2981 992.783 30.7938 996.783 33.0197 1000.38V1000.38ZM218.6 804C202.15 810.75 142.18 800.78 142.18 800.78C142.18 800.78 177.46 751.33 194.04 744.56C201.938 741.303 210.806 741.317 218.694 744.599C226.582 747.881 232.843 754.162 236.1 762.06C239.357 769.958 239.342 778.827 236.061 786.714C232.779 794.602 226.498 800.863 218.6 804.12V804ZM194.7 954.84C177 956.41 122.8 928.84 122.8 928.84C122.8 928.84 171.36 892.24 189.1 890.67C197.498 890.125 205.775 892.89 212.16 898.372C218.546 903.854 222.531 911.618 223.263 920.002C223.995 928.385 221.415 936.723 216.077 943.228C210.738 949.734 203.065 953.891 194.7 954.81V954.84ZM151.4 1098.32C134.16 1102.84 76.0997 1084.82 76.0997 1084.82C76.0997 1084.82 117.77 1040.52 135 1036.02C143.261 1033.85 152.047 1035.05 159.425 1039.35C166.803 1043.66 172.168 1050.72 174.34 1058.98C176.512 1067.24 175.313 1076.03 171.007 1083.41C166.701 1090.78 159.641 1096.15 151.38 1098.32H151.4Z" fill="black"/>
<path opacity="0.05" d="M37.1602 1144.17C37.1602 1144.17 170.86 1073.3 211.76 962.34C228.607 915.698 260.114 875.771 301.56 848.54C321.367 835.78 342.301 824.861 364.1 815.92" stroke="#535461" stroke-width="2" stroke-miterlimit="10"/>
<g opacity="0.05">
<path opacity="0.05" d="M390.4 746.14C377.57 758.58 363.3 817.64 363.3 817.64C363.3 817.64 422.7 804.64 435.42 792.22C438.484 789.281 440.936 785.764 442.635 781.873C444.334 777.982 445.245 773.792 445.317 769.547C445.389 765.302 444.62 761.084 443.054 757.137C441.488 753.19 439.156 749.593 436.193 746.552C433.229 743.511 429.693 741.086 425.789 739.418C421.884 737.751 417.688 736.872 413.442 736.834C409.196 736.796 404.985 737.598 401.05 739.195C397.116 740.793 393.537 743.153 390.52 746.14H390.4ZM282.7 776.92C278.8 794.27 298.74 851.72 298.74 851.72C298.74 851.72 341.52 808.48 345.44 791.12C346.372 786.995 346.483 782.726 345.765 778.558C345.048 774.389 343.517 770.403 341.259 766.827C339.001 763.25 336.061 760.154 332.606 757.714C329.151 755.273 325.25 753.538 321.125 752.605C316.999 751.673 312.73 751.562 308.562 752.279C304.394 752.997 300.408 754.528 296.831 756.786C293.255 759.044 290.158 761.984 287.718 765.439C285.278 768.893 283.542 772.795 282.61 776.92H282.7ZM163.93 896.28C169.28 913.25 215.59 952.68 215.59 952.68C215.59 952.68 230.69 893.78 225.19 876.82C222.609 868.678 216.9 861.894 209.318 857.962C201.736 854.029 192.902 853.27 184.76 855.85C176.617 858.431 169.834 864.14 165.901 871.722C161.969 879.304 161.209 888.138 163.79 896.28H163.93ZM94.3696 1006.83C96.7996 1024.46 135.77 1071.16 135.77 1071.16C135.77 1071.16 160.62 1015.64 158.22 998.04C157.642 993.85 156.244 989.814 154.107 986.164C151.969 982.513 149.134 979.32 145.762 976.765C142.39 974.211 138.549 972.345 134.456 971.275C130.363 970.206 126.1 969.952 121.91 970.53C117.719 971.108 113.683 972.506 110.033 974.643C106.383 976.78 103.189 979.616 100.635 982.988C98.08 986.359 96.2146 990.201 95.1448 994.294C94.075 998.386 93.8218 1002.65 94.3996 1006.84L94.3696 1006.83ZM343.64 902.47C325.84 902.02 275.11 868.47 275.11 868.47C275.11 868.47 327.55 837.63 345.31 838.07C353.85 838.29 361.952 841.894 367.835 848.088C373.718 854.283 376.9 862.56 376.68 871.1C376.459 879.64 372.856 887.743 366.661 893.626C360.467 899.509 352.19 902.69 343.65 902.47H343.64ZM260.68 1030.72C243.84 1024.98 205.45 977.8 205.45 977.8C205.45 977.8 264.69 964 281.52 969.8C285.602 971.102 289.384 973.206 292.643 975.988C295.902 978.771 298.573 982.175 300.499 986.003C302.425 989.831 303.568 994.005 303.861 998.28C304.153 1002.56 303.589 1006.85 302.202 1010.9C300.815 1014.95 298.633 1018.69 295.783 1021.89C292.934 1025.09 289.474 1027.69 285.607 1029.54C281.739 1031.38 277.543 1032.44 273.262 1032.64C268.982 1032.84 264.704 1032.19 260.68 1030.72V1030.72ZM162.9 1144.3C145.36 1141.48 99.5596 1101.46 99.5596 1101.46C99.5596 1101.46 155.62 1077.89 173.32 1080.71C177.496 1081.38 181.498 1082.87 185.098 1085.09C188.699 1087.31 191.826 1090.22 194.303 1093.65C196.78 1097.08 198.556 1100.96 199.532 1105.08C200.508 1109.2 200.663 1113.46 199.99 1117.64C199.316 1121.82 197.826 1125.82 195.606 1129.42C193.385 1133.02 190.477 1136.15 187.048 1138.62C183.619 1141.1 179.735 1142.88 175.619 1143.85C171.503 1144.83 167.236 1144.98 163.06 1144.31L162.9 1144.3Z" fill="#209EBB"/>
</g>
</g>
<path fill-rule="evenodd" clip-rule="evenodd" d="M-205.74 922.445C-324.107 816.483 -466.654 736.635 -533.179 592.367C-614.989 414.948 -710.357 199.52 -618.638 27.0154C-526.886 -145.551 -293.618 -179.846 -102.04 -218.514C49.9502 -249.192 199.035 -207.861 348.954 -168.284C482.876 -132.93 609.376 -87.0765 718.584 -1.87844C841.324 93.8778 989.611 193.605 1010.55 347.864C1031.43 501.648 887.086 620.178 822.178 761.148C753.429 910.459 758.954 1110.53 619.399 1197.39C478.538 1285.06 291.304 1241.98 133.897 1189.53C-6.17042 1142.86 -95.7394 1020.92 -205.74 922.445Z" fill="#FFFAFA"/>
</g>
<defs>
<clipPath id="clip0">
<rect width="2036.26" height="1149.76" fill="white"/>
</clipPath>
</defs>
</svg>
